<svg width="339" height="521" viewBox="0 0 339 521" fill="none" xmlns="http://www.w3.org/2000/svg">
<path d="M427.659 83.4059C381.29 30.7947 314.973 0.333252 246.833 0.333252C165.447 0.333252 89.3202 42.5851 43.1912 113.359C20.9848 147.452 6.70502 187.11 1.89465 228.05C0.637334 238.683 0 249.544 0 260.332C0 285.462 3.39783 310.307 10.1019 334.185C40.0546 440.861 131.08 515.578 236.606 520.111C271.315 521.602 306.243 515.444 338.496 501.809C338.563 501.78 338.627 501.743 338.693 501.711C403.588 471.854 455.427 418.517 479.418 347.585C509.93 257.37 489.437 153.501 427.659 83.4059ZM296.972 22.748C298.128 22.5337 299.288 22.3214 300.456 22.1173C326.722 28.6508 351.333 39.7921 373.83 55.3169C373.396 55.4255 372.966 55.5464 372.53 55.6561C363.442 57.7828 354.437 60.5372 345.537 63.3992C342.869 64.2574 340.212 65.1308 337.578 66.0347C333.781 67.3388 331.706 71.6379 332.944 75.6384C334.182 79.6389 338.262 81.8205 342.061 80.5195C344.699 79.6156 347.345 78.7452 349.998 77.8941C359.423 74.8706 369.055 72.1416 378.691 69.7681C379.779 69.5 380.868 69.239 381.958 68.979C384.512 68.3696 387.072 67.7877 389.635 67.225C412.974 86.4222 432.879 110.446 447.76 137.314C431.891 139.725 415.988 143.629 400.77 148.971C343.818 168.968 290.737 204.006 247.8 248.123C247.599 248.33 247.392 248.543 247.205 248.736C236.347 245.19 204.649 233.985 168.189 213.218C168.177 213.212 168.165 213.205 168.154 213.198C166.552 212.268 164.942 211.354 163.343 210.416C163.393 210.445 166.333 206.096 166.551 205.79C181.407 184.944 199.255 166.382 218.498 150.047C237.793 133.669 258.704 119.461 280.706 107.464C291.119 101.787 301.778 96.5216 312.652 91.8964C316.346 90.2968 318.109 85.8454 316.59 81.9545C315.071 78.0637 310.846 76.2051 307.151 77.8067C300.443 80.7114 293.805 83.8019 287.249 87.0733C264.584 98.3761 242.887 111.863 222.676 127.51C206.161 140.297 190.626 154.518 176.474 170.143C168.066 179.427 160.119 189.203 152.943 199.575C152.215 200.629 151.493 201.687 150.783 202.753C143.33 198.031 136.027 193.049 128.868 187.846C118.394 180.235 108.379 172.111 98.7848 163.306C97.514 162.139 96.2499 160.965 94.9945 159.779C95.0398 159.702 95.0832 159.626 95.1285 159.548C95.8016 158.382 96.491 157.227 97.191 156.08C115.682 125.717 140.461 99.7086 168.264 78.7797C197.512 56.7621 230.482 40.4431 265.106 30.3235C275.603 27.2553 286.244 24.7396 296.972 22.748ZM246.833 15.5675C251.272 15.5675 255.707 15.6996 260.131 15.9636C259.971 16.0114 259.815 16.0611 259.656 16.1089C259.169 16.2541 258.69 16.4044 258.206 16.5517C246.846 19.9997 235.675 24.0764 224.723 28.7676C182.221 47.0355 143.619 75.0422 112.546 110.663C102.12 122.621 92.53 135.409 84.2659 149.125C76.4588 140.99 69.0808 132.413 62.2687 123.337C60.8388 121.436 59.4379 119.511 58.0591 117.568C101.739 53.5984 171.922 15.5675 246.833 15.5675ZM23.5389 328.309C17.5146 306.318 14.461 283.458 14.461 260.332C14.461 255.725 14.5844 251.104 14.8293 246.496C15.1215 246.809 21.8911 253.95 24.0982 256.198C49.9926 282.57 78.8645 305.732 110.202 324.473C125.554 333.655 141.488 341.775 157.851 348.755C161.553 350.334 165.769 348.45 167.267 344.55C168.764 340.65 166.978 336.21 163.275 334.633C147.761 328.023 132.656 320.334 118.084 311.666C81.4746 289.887 48.3901 261.867 19.5626 229.678C18.5974 228.601 17.638 227.517 16.6825 226.429C21.1275 192.677 32.4095 159.941 49.5433 130.954C49.9502 131.506 50.3744 132.052 50.7871 132.601C72.3658 161.348 99.0229 185.479 127.989 205.623C141.816 215.239 156.18 223.997 170.925 231.953C204.82 250.242 232.976 260.094 243.249 263.405C245.384 272.987 250.562 298.596 253.22 332.136C253.948 341.045 254.665 350.084 254.665 359.032C254.666 359.061 254.666 359.091 254.667 359.119C253.816 359.039 252.915 358.95 251.961 358.847C247.29 358.346 242.518 357.659 237.831 356.885C225.004 354.739 212.333 351.651 199.846 347.903C196.896 347.017 193.929 345.781 190.924 345.137C187.338 344.366 183.674 346.655 182.584 350.333C181.412 354.29 183.591 358.644 187.333 359.874C199.679 363.933 212.232 367.321 224.927 369.936C230.87 371.156 236.845 372.206 242.848 373.045C246.655 373.577 250.471 374.028 254.297 374.372C254.479 374.388 254.667 374.405 254.844 374.421C254.843 374.709 254.84 374.996 254.838 375.286C254.723 398.839 252.855 422.686 248.691 445.947C248.643 446.218 248.596 446.49 248.547 446.761C239.146 446.492 219.521 445.112 194.253 438.852C182.63 435.973 171.179 432.393 159.937 428.161C123.752 414.536 90.9063 394.584 61.776 368.572C61.7269 368.528 61.6767 368.483 61.6276 368.44C48.4325 356.592 36.1091 343.672 24.7885 329.841C24.371 329.331 23.9545 328.822 23.5389 328.309ZM242.343 474.274C239.558 484.492 236.174 494.749 232.238 504.621C147.15 499.062 72.7158 445.016 36.8728 365.418C40.288 368.872 43.7774 372.246 47.3247 375.549C77.0354 403.195 110.548 424.614 147.511 439.555C159.21 444.28 171.154 448.359 183.283 451.676C211.053 459.298 233.404 461.372 245.439 461.893C244.487 466.044 243.46 470.17 242.343 474.274ZM330.614 487.301C330.437 487.842 330.255 488.382 330.076 488.923C303.81 499.549 276.112 504.988 247.691 505.094C247.957 504.383 248.221 503.671 248.481 502.957C274.384 432.12 274.052 351.182 260.85 277.435C259.799 271.564 258.643 265.712 257.339 259.896C257.324 259.826 257.305 259.745 257.29 259.677C263.277 253.519 278.644 238.383 300.796 221.306C300.85 221.264 300.904 221.222 300.958 221.182C310.188 214.092 319.721 206.418 329.836 200.787C330.041 200.697 333.46 210.456 333.831 211.538C356.35 277.344 359.576 350.491 347.717 419.002C343.704 442.188 337.918 465.027 330.614 487.301ZM433.118 390.988C431.539 398.697 429.757 406.361 427.739 413.955C426.188 415.98 424.567 418.027 422.909 420.058C422.859 420.121 422.809 420.184 422.759 420.248C402.006 445.555 376.366 466.252 347.92 480.77C348.13 480.076 348.328 479.383 348.535 478.689C353.553 461.84 357.718 444.706 360.932 427.374C368.525 386.434 370.737 344.464 367.132 302.911C363.891 265.559 356.539 227.739 342.527 193.137C342.498 193.066 342.467 192.988 342.439 192.918C343.823 192.094 345.205 191.278 346.603 190.468C361.971 181.581 377.919 173.78 394.381 167.421C399.234 165.547 404.13 163.798 409.068 162.188C409.325 162.152 410.049 164.369 410.169 164.657C424.397 198.535 434.114 234.202 438.335 270.999C442.907 310.928 441.167 351.67 433.118 390.988ZM449.997 379.329C450.041 379.057 450.078 378.785 450.122 378.512C454.487 351.64 456.114 324.28 454.911 297.046C453.758 270.969 450.05 245.002 443.886 219.718C438.75 198.673 431.917 178.078 423.321 158.32C423.276 158.218 423.23 158.111 423.186 158.01C423.939 157.809 424.691 157.603 425.444 157.409C432.885 155.492 440.397 153.947 447.963 152.69C449.001 152.518 453.756 151.83 455.098 151.658C470.883 185.191 479.205 222.649 479.205 260.332C479.205 302.705 469.196 343.191 449.997 379.329Z" fill="#C5D2DA" fill-opacity="0.35"/>
</svg>
