<svg width="34" height="34" viewBox="0 0 34 34" fill="none" xmlns="http://www.w3.org/2000/svg">
<circle cx="17" cy="17" r="17" fill="#C0C0C0"/>
<path d="M17.1125 13.5803C15.1571 13.5803 13.579 15.1584 13.579 17.1139C13.579 19.0694 15.1571 20.6475 17.1125 20.6475C19.068 20.6475 20.6461 19.0694 20.6461 17.1139C20.6461 15.1584 19.068 13.5803 17.1125 13.5803ZM17.1125 19.4105C15.848 19.4105 14.816 18.3785 14.816 17.1139C14.816 15.8493 15.848 14.8173 17.1125 14.8173C18.3771 14.8173 19.4091 15.8493 19.4091 17.1139C19.4091 18.3785 18.3771 19.4105 17.1125 19.4105ZM20.7908 12.612C20.3343 12.612 19.9656 12.9807 19.9656 13.4373C19.9656 13.8938 20.3343 14.2625 20.7908 14.2625C21.2474 14.2625 21.6161 13.8956 21.6161 13.4373C21.6162 13.3289 21.5949 13.2215 21.5535 13.1213C21.5121 13.0211 21.4513 12.9301 21.3747 12.8534C21.298 12.7768 21.207 12.716 21.1068 12.6746C21.0066 12.6331 20.8992 12.6119 20.7908 12.612ZM24.0005 17.1139C24.0005 16.1629 24.0091 15.2205 23.9557 14.2712C23.9023 13.1685 23.6507 12.1899 22.8444 11.3836C22.0364 10.5756 21.0596 10.3258 19.957 10.2724C19.0059 10.2189 18.0636 10.2276 17.1143 10.2276C16.1633 10.2276 15.2209 10.2189 14.2716 10.2724C13.1689 10.3258 12.1904 10.5773 11.3841 11.3836C10.5761 12.1916 10.3263 13.1685 10.2728 14.2712C10.2194 15.2222 10.2281 16.1646 10.2281 17.1139C10.2281 18.0632 10.2194 19.0073 10.2728 19.9567C10.3263 21.0593 10.5778 22.0379 11.3841 22.8442C12.1921 23.6522 13.1689 23.902 14.2716 23.9555C15.2226 24.0089 16.165 24.0002 17.1143 24.0002C18.0653 24.0002 19.0077 24.0089 19.957 23.9555C21.0596 23.902 22.0382 23.6505 22.8444 22.8442C23.6525 22.0362 23.9023 21.0593 23.9557 19.9567C24.0108 19.0073 24.0005 18.0649 24.0005 17.1139ZM22.4844 21.1765C22.3586 21.49 22.207 21.7243 21.9641 21.9655C21.7212 22.2085 21.4886 22.3601 21.175 22.4858C20.2688 22.8459 18.117 22.7649 17.1125 22.7649C16.1081 22.7649 13.9546 22.8459 13.0483 22.4876C12.7348 22.3618 12.5005 22.2102 12.2593 21.9673C12.0164 21.7243 11.8648 21.4917 11.739 21.1782C11.3806 20.2702 11.4616 18.1183 11.4616 17.1139C11.4616 16.1095 11.3806 13.9559 11.739 13.0496C11.8648 12.7361 12.0164 12.5018 12.2593 12.2606C12.5022 12.0194 12.7348 11.866 13.0483 11.7402C13.9546 11.3819 16.1081 11.4629 17.1125 11.4629C18.117 11.4629 20.2705 11.3819 21.1767 11.7402C21.4903 11.866 21.7246 12.0176 21.9658 12.2606C22.2087 12.5035 22.3603 12.7361 22.4861 13.0496C22.8444 13.9559 22.7635 16.1095 22.7635 17.1139C22.7635 18.1183 22.8444 20.2702 22.4844 21.1765Z" fill="white"/>
</svg>
