<svg width="25" height="25" viewBox="0 0 25 25" fill="none" xmlns="http://www.w3.org/2000/svg">
<g clip-path="url(#clip0_314_441)">
<path d="M12.3223 12.0426C13.9767 12.0426 15.4091 11.4492 16.5799 10.2785C17.7502 9.10797 18.3438 7.67574 18.3438 6.02112C18.3438 4.36707 17.7504 2.93465 16.5797 1.76373C15.4089 0.593376 13.9765 0 12.3223 0C10.6677 0 9.23543 0.593376 8.06489 1.76392C6.89435 2.93446 6.30078 4.36687 6.30078 6.02112C6.30078 7.67574 6.89435 9.10816 8.06489 10.2787C9.23581 11.4491 10.6682 12.0426 12.3223 12.0426ZM9.10096 2.7998C9.99913 1.90163 11.0528 1.46503 12.3223 1.46503C13.5916 1.46503 14.6454 1.90163 15.5438 2.7998C16.442 3.69816 16.8787 4.75197 16.8787 6.02112C16.8787 7.29065 16.442 8.34427 15.5438 9.24263C14.6454 10.141 13.5916 10.5776 12.3223 10.5776C11.0531 10.5776 9.99951 10.1408 9.10096 9.24263C8.2026 8.34446 7.76582 7.29065 7.76582 6.02112C7.76582 4.75197 8.2026 3.69816 9.10096 2.7998Z" fill="#3F3F3F"/>
<path d="M22.8579 19.2238C22.8241 18.7367 22.7558 18.2053 22.6553 17.6442C22.5538 17.0788 22.4232 16.5444 22.2668 16.0559C22.105 15.551 21.8855 15.0525 21.6137 14.5747C21.332 14.0788 21.0009 13.6469 20.6293 13.2916C20.2408 12.9199 19.7651 12.621 19.215 12.403C18.6668 12.1861 18.0593 12.0762 17.4095 12.0762C17.1543 12.0762 16.9075 12.181 16.4309 12.4913C16.1375 12.6826 15.7944 12.9038 15.4114 13.1486C15.0839 13.3572 14.6402 13.5527 14.0923 13.7297C13.5576 13.9027 13.0148 13.9905 12.4788 13.9905C11.9432 13.9905 11.4004 13.9027 10.8654 13.7297C10.318 13.5529 9.87415 13.3574 9.54723 13.1487C9.16786 12.9063 8.82454 12.6851 8.5268 12.4911C8.05054 12.1808 7.80373 12.076 7.54852 12.076C6.8985 12.076 6.2912 12.1861 5.74322 12.4032C5.19352 12.6208 4.71764 12.9197 4.32873 13.2918C3.95718 13.6473 3.62606 14.079 3.34454 14.5747C3.07312 15.0525 2.85339 15.5509 2.69165 16.0561C2.53544 16.5446 2.40479 17.0788 2.30331 17.6442C2.20261 18.2046 2.13451 18.7361 2.10075 19.2244C2.06757 19.7018 2.05078 20.1987 2.05078 20.7007C2.05078 22.0057 2.46563 23.0622 3.28369 23.8413C4.09164 24.6102 5.16052 25.0001 6.46076 25.0001H18.4984C19.7983 25.0001 20.8672 24.6102 21.6753 23.8413C22.4936 23.0628 22.9084 22.0059 22.9084 20.7005C22.9082 20.1968 22.8912 19.6999 22.8579 19.2238ZM20.6652 22.7799C20.1313 23.288 19.4225 23.535 18.4982 23.535H6.46076C5.53627 23.535 4.8275 23.288 4.29382 22.7801C3.77026 22.2817 3.51582 21.6013 3.51582 20.7007C3.51582 20.2323 3.53127 19.7697 3.56216 19.3257C3.5923 18.8901 3.65391 18.4115 3.74527 17.903C3.83549 17.4008 3.95031 16.9295 4.08688 16.5028C4.21791 16.0937 4.39663 15.6886 4.61826 15.2983C4.82979 14.9264 5.07317 14.6073 5.34172 14.3502C5.59292 14.1097 5.90954 13.9128 6.28262 13.7652C6.62766 13.6286 7.01542 13.5539 7.43637 13.5426C7.48768 13.5699 7.57904 13.622 7.72705 13.7185C8.02822 13.9147 8.37536 14.1387 8.75912 14.3838C9.1917 14.6596 9.74903 14.9087 10.4149 15.1236C11.0956 15.3437 11.7899 15.4555 12.479 15.4555C13.1681 15.4555 13.8626 15.3437 14.543 15.1238C15.2094 14.9085 15.7665 14.6596 16.1997 14.3834C16.5924 14.1324 16.9298 13.9149 17.231 13.7185C17.379 13.6221 17.4704 13.5699 17.5217 13.5426C17.9428 13.5539 18.3306 13.6286 18.6758 13.7652C19.0487 13.9128 19.3653 14.1099 19.6165 14.3502C19.8851 14.6071 20.1284 14.9262 20.34 15.2985C20.5618 15.6886 20.7407 16.0939 20.8715 16.5026C21.0083 16.9299 21.1233 17.401 21.2133 17.9028C21.3045 18.4123 21.3663 18.891 21.3964 19.3259V19.3263C21.4275 19.7686 21.4432 20.2309 21.4434 20.7007C21.4432 21.6015 21.1887 22.2817 20.6652 22.7799Z" fill="#3F3F3F"/>
</g>
<defs>
<clipPath id="clip0_314_441">
<rect width="25" height="25" fill="white"/>
</clipPath>
</defs>
</svg>
