<svg width="35" height="35" viewBox="0 0 35 35" fill="none" xmlns="http://www.w3.org/2000/svg">
<circle cx="17" cy="17" r="17" fill="#C0C0C0"/>
<path d="M22.542 17.9434C22.2623 17.5972 22.3423 17.4433 22.542 17.1339C22.5456 17.1304 24.8553 14.0041 25.0932 12.9439L25.0947 12.9431C25.2129 12.5568 25.0947 12.2728 24.5229 12.2728H22.6307C22.149 12.2728 21.927 12.5165 21.808 12.7892C21.808 12.7892 20.8446 15.0481 19.4818 16.5123C19.0419 16.9354 18.8385 17.071 18.5984 17.071C18.4802 17.071 18.2963 16.9354 18.2963 16.549V12.9431C18.2963 12.4798 18.1615 12.2728 17.7627 12.2728H14.7875C14.4854 12.2728 14.3058 12.489 14.3058 12.6903C14.3058 13.1296 14.9872 13.2306 15.0579 14.4667V17.1487C15.0579 17.7364 14.949 17.8445 14.7075 17.8445C14.0642 17.8445 12.5031 15.5764 11.5779 12.9806C11.3912 12.477 11.2088 12.2735 10.7235 12.2735H8.83062C8.29052 12.2735 8.18164 12.5172 8.18164 12.7899C8.18164 13.2716 8.82485 15.6668 11.1727 18.8312C12.7375 20.9912 14.9411 22.1616 16.9457 22.1616C18.1506 22.1616 18.2977 21.9017 18.2977 21.4546C18.2977 19.3907 18.1889 19.1957 18.7924 19.1957C19.0722 19.1957 19.5539 19.3313 20.6788 20.3732C21.9644 21.6086 22.1757 22.1616 22.8954 22.1616H24.7875C25.3269 22.1616 25.6002 21.9017 25.443 21.3889C25.0831 20.3103 22.6516 18.0917 22.542 17.9434Z" fill="white"/>
</svg>
